<svg width="76" height="76" viewBox="0 0 76 76" fill="none" xmlns="http://www.w3.org/2000/svg">
<path d="M63.9655 32.1886C63.9655 49.9659 49.6463 64.3773 31.9827 64.3773C14.3192 64.3773 0 49.9659 0 32.1886C0 14.4113 14.3192 0 31.9827 0C49.6463 0 63.9655 14.4113 63.9655 32.1886ZM10.178 32.1886C10.178 44.3086 19.9403 54.1337 31.9827 54.1337C44.0251 54.1337 53.7874 44.3086 53.7874 32.1886C53.7874 20.0687 44.0251 10.2436 31.9827 10.2436C19.9403 10.2436 10.178 20.0687 10.178 32.1886Z" fill="black"/>
<rect width="9.64119" height="30.1008" transform="matrix(0.704834 -0.709372 0.704834 0.709372 47.9741 54.4784)" fill="black"/>
</svg>
