<svg width="39" height="40" viewBox="0 0 39 40" fill="none" xmlns="http://www.w3.org/2000/svg">
<path fill-rule="evenodd" clip-rule="evenodd" d="M9.31445 9.6893C11.9373 6.971 15.5007 5.44238 19.2129 5.44238C22.9251 5.44238 26.4885 6.971 29.1113 9.6893C31.7363 12.4076 33.2129 16.0983 33.2129 19.9424C33.2129 23.7865 31.7363 27.4772 29.1113 30.1955C26.4885 32.9138 22.9251 34.4424 19.2129 34.4424C15.5007 34.4424 11.9373 32.9138 9.31445 30.1955C6.68945 27.4772 5.21289 23.7865 5.21289 19.9424C5.21362 16.0967 6.68893 12.4087 9.31445 9.6893ZM19.7146 16.1467C18.354 16.7333 15.6327 17.9474 11.5509 19.7889C10.888 20.0619 10.5402 20.3291 10.5096 20.5901C10.4557 21.031 10.9889 21.2049 11.7133 21.4412C11.8127 21.4736 11.9156 21.5072 12.0212 21.5428C12.7365 21.7834 13.699 22.065 14.1977 22.0761C14.6527 22.0863 15.158 21.8926 15.7159 21.4952C19.5309 18.8292 21.4974 17.4816 21.6221 17.4526C21.7096 17.4322 21.8299 17.4064 21.9109 17.4819C21.994 17.5571 21.9852 17.6998 21.9765 17.7381C21.9249 17.971 19.8385 19.98 18.7528 21.0255C18.4115 21.3541 18.1691 21.5876 18.1199 21.6406C18.01 21.7589 17.898 21.8707 17.7904 21.9782C17.1265 22.641 16.6285 23.1382 17.818 23.95C18.3948 24.3435 18.8552 24.6683 19.3154 24.9929C19.8098 25.3417 20.3039 25.6903 20.9418 26.1236C21.1058 26.235 21.2625 26.3506 21.415 26.4633C21.9948 26.8913 22.5157 27.2759 23.1599 27.2145C23.534 27.179 23.9212 26.8146 24.1159 25.7281C24.5796 23.16 25.4918 17.596 25.7018 15.3032C25.7215 15.1025 25.6974 14.8453 25.6799 14.7325C25.6602 14.6196 25.6209 14.4587 25.4809 14.3398C25.3124 14.1987 25.0543 14.1691 24.9384 14.171C24.4112 14.1808 23.604 14.4717 19.7146 16.1467Z" fill="url(#paint0_linear_302_6213)"/>
<defs>
<linearGradient id="paint0_linear_302_6213" x1="1405.21" y1="5.44238" x2="1405.21" y2="2905.44" gradientUnits="userSpaceOnUse">
<stop stop-color="#2AABEE"/>
<stop offset="1" stop-color="#229ED9"/>
</linearGradient>
</defs>
</svg>
