<svg width="40" height="40" viewBox="0 0 40 40" fill="none" xmlns="http://www.w3.org/2000/svg">
<g id="uil:vk">
<path id="Vector" d="M23.7087 6.96973H15.6976C8.38099 6.96973 6.64062 8.71009 6.64062 16.0136V24.0248C6.64062 31.34 8.36793 33.0817 15.6845 33.0817H23.6956C31.0109 33.0817 32.7526 31.3544 32.7526 24.0378V16.0267C32.7526 8.71009 31.0253 6.96973 23.7087 6.96973ZM27.7208 25.6006H25.8159C25.0953 25.6006 24.8785 25.017 23.586 23.7245C22.4579 22.6369 21.9814 22.5011 21.6955 22.5011C21.3012 22.5011 21.1928 22.6095 21.1928 23.1539V24.8669C21.1928 25.3303 21.0427 25.6019 19.8324 25.6019C18.6578 25.523 17.5188 25.1661 16.5091 24.5607C15.4995 23.9554 14.6481 23.1188 14.0251 22.1199C12.5461 20.279 11.517 18.1184 11.0196 15.8099C11.0196 15.524 11.128 15.2655 11.6724 15.2655H13.576C14.0656 15.2655 14.2418 15.4835 14.4337 15.9862C15.3581 18.7071 16.9353 21.0728 17.575 21.0728C17.8205 21.0728 17.9275 20.9644 17.9275 20.3521V17.5503C17.8466 16.2721 17.1677 16.1637 17.1677 15.7016C17.1764 15.5797 17.2322 15.4659 17.3234 15.3845C17.4146 15.3031 17.5338 15.2604 17.656 15.2655H20.6484C21.057 15.2655 21.1928 15.4692 21.1928 15.9588V19.7398C21.1928 20.1484 21.3691 20.2842 21.4918 20.2842C21.7373 20.2842 21.9266 20.1484 22.3757 19.6993C23.3403 18.5229 24.1285 17.2122 24.7153 15.8086C24.7753 15.64 24.8888 15.4957 25.0385 15.3976C25.1882 15.2995 25.3658 15.2531 25.5444 15.2655H27.4492C28.0198 15.2655 28.1412 15.5514 28.0198 15.9588C27.3272 17.5104 26.4701 18.9832 25.4634 20.3521C25.2584 20.6654 25.1762 20.8286 25.4634 21.1955C25.6527 21.4814 26.3199 22.0389 26.769 22.569C27.4217 23.22 27.9637 23.9733 28.3736 24.799C28.5368 25.329 28.2639 25.6006 27.7208 25.6006Z" fill="#007DFC"/>
</g>
</svg>
