<svg width="40" height="40" viewBox="0 0 40 40" fill="none" xmlns="http://www.w3.org/2000/svg">
<g id="ri:youtube-fill">
<path id="Vector" d="M19.0001 6.96973C19.8197 6.97433 21.8702 6.99428 24.0497 7.08177L24.8232 7.11553C27.0165 7.21837 29.2082 7.39641 30.2964 7.69877C31.7468 8.10703 32.8857 9.29499 33.2709 10.8022C33.8848 13.1965 33.9616 17.8654 33.9708 18.9966L33.9723 19.2299V19.497C33.9616 20.6281 33.8848 25.2986 33.2709 27.6914C32.881 29.2032 31.7407 30.3927 30.2964 30.7948C29.2082 31.0972 27.0165 31.2752 24.8232 31.378L24.0497 31.4133C21.8702 31.4993 19.8197 31.5208 19.0001 31.5239L18.6394 31.5254H18.248C16.5137 31.5146 9.26009 31.4364 6.95171 30.7948C5.50284 30.3866 4.36247 29.1986 3.97722 27.6914C3.36329 25.2971 3.28655 20.6281 3.27734 19.497V18.9966C3.28655 17.8654 3.36329 13.195 3.97722 10.8022C4.36707 9.29038 5.50744 8.10089 6.95325 7.7003C9.26009 7.05721 16.5152 6.97894 18.2496 6.96973H19.0001ZM15.5544 13.8764V24.6202L24.7634 19.2483L15.5544 13.8764Z" fill="#E10000"/>
</g>
</svg>
